<svg xmlns="http://www.w3.org/2000/svg" viewBox="0 0 1000 1500" width="1000" height="1500" font-family="Segoe UI, Roboto, Helvetica, Arial, sans-serif">
<defs><linearGradient id="hg" x1="0" y1="0" x2="1" y2="1"><stop offset="0" stop-color="#4f46e5"/><stop offset="1" stop-color="#7c3aed"/></linearGradient></defs>
<rect width="1000" height="1500" fill="#ffffff"/>
<rect width="1000" height="250" fill="url(#hg)"/>
<text x="50" y="98" fill="#ffffff" font-size="52" font-weight="800">Average Net Worth by Age</text>
<text x="50" y="150" fill="#e9e7fb" font-size="24" font-weight="600">United States · 2026 · Federal Reserve (SCF) data</text>
<text x="50" y="210" fill="#ffffff" font-size="22" font-weight="700" opacity="0.95">Average vs Median — are you on track?</text>
<rect x="50" y="300" width="26" height="26" rx="5" fill="#a5b4fc"/>
<text x="86" y="321" fill="#1f2937" font-size="22" font-weight="600">Average</text>
<rect x="240" y="300" width="26" height="26" rx="5" fill="#4f46e5"/>
<text x="276" y="321" fill="#1f2937" font-size="22" font-weight="600">Median (more typical)</text>
<text x="50" y="451" fill="#1f2937" font-size="30" font-weight="800">Under 35</text>
<rect x="210" y="378" width="56" height="40" rx="8" fill="#a5b4fc"/>
<text x="280" y="407" fill="#1f2937" font-size="26" font-weight="700">$183K</text>
<rect x="210" y="430" width="12" height="40" rx="8" fill="#4f46e5"/>
<text x="236" y="459" fill="#4f46e5" font-size="26" font-weight="800">$39K</text>
<text x="50" y="618" fill="#1f2937" font-size="30" font-weight="800">35–44</text>
<rect x="210" y="545" width="167" height="40" rx="8" fill="#a5b4fc"/>
<text x="391" y="574" fill="#1f2937" font-size="26" font-weight="700">$549K</text>
<rect x="210" y="597" width="41" height="40" rx="8" fill="#4f46e5"/>
<text x="265" y="626" fill="#4f46e5" font-size="26" font-weight="800">$135K</text>
<text x="50" y="785" fill="#1f2937" font-size="30" font-weight="800">45–54</text>
<rect x="210" y="711" width="297" height="40" rx="8" fill="#a5b4fc"/>
<text x="521" y="740" fill="#1f2937" font-size="26" font-weight="700">$975K</text>
<rect x="210" y="763" width="75" height="40" rx="8" fill="#4f46e5"/>
<text x="299" y="792" fill="#4f46e5" font-size="26" font-weight="800">$247K</text>
<text x="50" y="951" fill="#1f2937" font-size="30" font-weight="800">55–64</text>
<rect x="210" y="878" width="478" height="40" rx="8" fill="#a5b4fc"/>
<text x="702" y="907" fill="#1f2937" font-size="26" font-weight="700">$1.57M</text>
<rect x="210" y="930" width="111" height="40" rx="8" fill="#4f46e5"/>
<text x="335" y="959" fill="#4f46e5" font-size="26" font-weight="800">$364K</text>
<text x="50" y="1118" fill="#1f2937" font-size="30" font-weight="800">65–74</text>
<rect x="210" y="1045" width="545" height="40" rx="8" fill="#a5b4fc"/>
<text x="769" y="1074" fill="#1f2937" font-size="26" font-weight="700">$1.79M</text>
<rect x="210" y="1097" width="125" height="40" rx="8" fill="#4f46e5"/>
<text x="349" y="1126" fill="#4f46e5" font-size="26" font-weight="800">$410K</text>
<text x="50" y="1285" fill="#1f2937" font-size="30" font-weight="800">75+</text>
<rect x="210" y="1211" width="524" height="40" rx="8" fill="#a5b4fc"/>
<text x="748" y="1240" fill="#1f2937" font-size="26" font-weight="700">$1.72M</text>
<rect x="210" y="1263" width="102" height="40" rx="8" fill="#4f46e5"/>
<text x="326" y="1292" fill="#4f46e5" font-size="26" font-weight="800">$335K</text>
<text x="50" y="1406" fill="#6b7280" font-size="22">Median (middle household) is far more typical than the average,</text>
<text x="50" y="1436" fill="#6b7280" font-size="22">which is skewed up by the ultra-wealthy.</text>
<rect y="1460" width="1000" height="40" fill="#f3f4f6"/>
<text x="50" y="1487" fill="#4f46e5" font-size="24" font-weight="800">usecalcfi.com</text>
<text x="950" y="1487" text-anchor="end" fill="#6b7280" font-size="20">Free to share with credit · Source: Federal Reserve</text>
</svg>