<svg xmlns="http://www.w3.org/2000/svg" viewBox="0 0 1000 1500" width="1000" height="1500" font-family="Segoe UI, Roboto, Helvetica, Arial, sans-serif">
<defs><linearGradient id="hg" x1="0" y1="0" x2="1" y2="1"><stop offset="0" stop-color="#4f46e5"/><stop offset="1" stop-color="#7c3aed"/></linearGradient></defs>
<rect width="1000" height="1500" fill="#ffffff"/>
<rect width="1000" height="250" fill="url(#hg)"/>
<text x="50" y="98" fill="#ffffff" font-size="52" font-weight="800">Retirement Savings by Age</text>
<text x="50" y="150" fill="#e9e7fb" font-size="24" font-weight="600">United States · 2026 · Federal Reserve data</text>
<text x="50" y="210" fill="#ffffff" font-size="22" font-weight="700" opacity="0.95">Average vs Median — are you on track?</text>
<rect x="50" y="300" width="26" height="26" rx="5" fill="#a5b4fc"/>
<text x="86" y="321" fill="#1f2937" font-size="22" font-weight="600">Average</text>
<rect x="240" y="300" width="26" height="26" rx="5" fill="#4f46e5"/>
<text x="276" y="321" fill="#1f2937" font-size="22" font-weight="600">Median (more typical)</text>
<text x="50" y="451" fill="#1f2937" font-size="30" font-weight="800">Under 35</text>
<rect x="210" y="378" width="44" height="40" rx="8" fill="#a5b4fc"/>
<text x="268" y="407" fill="#1f2937" font-size="26" font-weight="700">$51,400</text>
<rect x="210" y="430" width="12" height="40" rx="8" fill="#4f46e5"/>
<text x="236" y="459" fill="#4f46e5" font-size="26" font-weight="800">$13,500</text>
<text x="50" y="618" fill="#1f2937" font-size="30" font-weight="800">35–44</text>
<rect x="210" y="545" width="127" height="40" rx="8" fill="#a5b4fc"/>
<text x="351" y="574" fill="#1f2937" font-size="26" font-weight="700">$148,100</text>
<rect x="210" y="597" width="40" height="40" rx="8" fill="#4f46e5"/>
<text x="264" y="626" fill="#4f46e5" font-size="26" font-weight="800">$47,000</text>
<text x="50" y="785" fill="#1f2937" font-size="30" font-weight="800">45–54</text>
<rect x="210" y="711" width="280" height="40" rx="8" fill="#a5b4fc"/>
<text x="504" y="740" fill="#1f2937" font-size="26" font-weight="700">$327,100</text>
<rect x="210" y="763" width="78" height="40" rx="8" fill="#4f46e5"/>
<text x="302" y="792" fill="#4f46e5" font-size="26" font-weight="800">$91,300</text>
<text x="50" y="951" fill="#1f2937" font-size="30" font-weight="800">55–64</text>
<rect x="210" y="878" width="481" height="40" rx="8" fill="#a5b4fc"/>
<text x="705" y="907" fill="#1f2937" font-size="26" font-weight="700">$561,800</text>
<rect x="210" y="930" width="166" height="40" rx="8" fill="#4f46e5"/>
<text x="390" y="959" fill="#4f46e5" font-size="26" font-weight="800">$193,500</text>
<text x="50" y="1118" fill="#1f2937" font-size="30" font-weight="800">65–74</text>
<rect x="210" y="1045" width="545" height="40" rx="8" fill="#a5b4fc"/>
<text x="769" y="1074" fill="#1f2937" font-size="26" font-weight="700">$636,200</text>
<rect x="210" y="1097" width="179" height="40" rx="8" fill="#4f46e5"/>
<text x="403" y="1126" fill="#4f46e5" font-size="26" font-weight="800">$209,500</text>
<text x="50" y="1285" fill="#1f2937" font-size="30" font-weight="800">75+</text>
<rect x="210" y="1211" width="413" height="40" rx="8" fill="#a5b4fc"/>
<text x="637" y="1240" fill="#1f2937" font-size="26" font-weight="700">$481,900</text>
<rect x="210" y="1263" width="117" height="40" rx="8" fill="#4f46e5"/>
<text x="341" y="1292" fill="#4f46e5" font-size="26" font-weight="800">$136,200</text>
<text x="50" y="1406" fill="#6b7280" font-size="22">Average is skewed by a few very wealthy savers.</text>
<text x="50" y="1436" fill="#6b7280" font-size="22">The median shows what the typical American really has.</text>
<rect y="1460" width="1000" height="40" fill="#f3f4f6"/>
<text x="50" y="1487" fill="#4f46e5" font-size="24" font-weight="800">usecalcfi.com</text>
<text x="950" y="1487" text-anchor="end" fill="#6b7280" font-size="20">Free to share with credit · Source: Federal Reserve</text>
</svg>